<?xml version="1.0" encoding="utf-8"?>
<!-- Generator: Adobe Illustrator 16.0.0, SVG Export Plug-In . SVG Version: 6.00 Build 0)  -->
<!DOCTYPE svg PUBLIC "-//W3C//DTD SVG 1.1//EN" "http://www.w3.org/Graphics/SVG/1.1/DTD/svg11.dtd">
<svg version="1.1" id="Layer_1" xmlns="http://www.w3.org/2000/svg" xmlns:xlink="http://www.w3.org/1999/xlink" x="0px" y="0px"
	 width="399px" height="90px" viewBox="0 0 399 90" enable-background="new 0 0 399 90" xml:space="preserve">
<g>
	<g>
		<g>
			<defs>
				<rect id="SVGID_1_" y="0.032" width="75.143" height="90"/>
			</defs>
			<clipPath id="SVGID_2_">
				<use xlink:href="#SVGID_1_"  overflow="visible"/>
			</clipPath>
			<g clip-path="url(#SVGID_2_)">
				<path fill="#010101" d="M37.572,90.032C16.856,90.032,0,73.229,0,52.568V0.032h75.143v52.536
					C75.143,73.229,58.29,90.032,37.572,90.032z M2.572,2.599v49.969c0,19.243,15.698,34.896,34.998,34.896
					c19.297,0,34.999-15.653,34.999-34.896V2.599H2.572z"/>
			</g>
		</g>
		<g>
			<defs>
				<rect id="SVGID_3_" y="0.032" width="75.143" height="90"/>
			</defs>
			<clipPath id="SVGID_4_">
				<use xlink:href="#SVGID_3_"  overflow="visible"/>
			</clipPath>
			<g clip-path="url(#SVGID_4_)">
				<polygon fill="#010101" points="40.393,0.403 42.212,2.217 2.201,42.139 0.381,40.327 				"/>
			</g>
		</g>
		<g>
			<defs>
				<rect id="SVGID_5_" y="0.032" width="75.143" height="90"/>
			</defs>
			<clipPath id="SVGID_6_">
				<use xlink:href="#SVGID_5_"  overflow="visible"/>
			</clipPath>
			<g clip-path="url(#SVGID_6_)">
				<polygon fill="#010101" points="72.853,32.775 74.671,34.591 22.646,86.37 20.828,84.554 				"/>
			</g>
		</g>
		<g>
			<defs>
				<rect id="SVGID_7_" y="0.032" width="75.143" height="90"/>
			</defs>
			<clipPath id="SVGID_8_">
				<use xlink:href="#SVGID_7_"  overflow="visible"/>
			</clipPath>
			<g clip-path="url(#SVGID_8_)">
				<polygon fill="#010101" points="72.512,0.442 74.33,2.259 6.581,69.686 4.763,67.87 				"/>
			</g>
		</g>
	</g>
	<g>
		<path fill="#010101" d="M134.14,28.716h5.604v33.108h-6.08l-18.81-24.159v24.159h-5.604V28.716h5.604l19.286,24.724V28.716z"/>
		<path fill="#010101" d="M205.247,57.251c-3.355,3.271-7.505,4.901-12.444,4.901c-4.94,0-9.089-1.631-12.445-4.901
			c-3.358-3.265-5.035-7.343-5.035-12.219c0-4.876,1.679-8.953,5.035-12.221c3.356-3.269,7.505-4.9,12.445-4.9
			c4.939,0,9.089,1.632,12.444,4.9c3.358,3.268,5.035,7.345,5.035,12.221C210.282,49.908,208.605,53.986,205.247,57.251z
			 M201.138,36.529c-2.265-2.334-5.043-3.505-8.335-3.505c-3.292,0-6.073,1.171-8.337,3.505c-2.266,2.336-3.396,5.173-3.396,8.503
			c0,3.333,1.132,6.166,3.396,8.503c2.264,2.338,5.042,3.504,8.337,3.504c3.293,0,6.07-1.166,8.335-3.504
			c2.264-2.337,3.397-5.17,3.397-8.503C204.535,41.702,203.406,38.867,201.138,36.529z"/>
		<path fill="#010101" d="M272.364,39.469c0,5.464-2.392,8.901-7.171,10.323l8.692,12.032h-7.125l-7.933-11.132h-7.365v11.132
			h-5.604V28.716h12.348c5.07,0,8.693,0.85,10.878,2.558C271.274,32.977,272.364,35.71,272.364,39.469z M264.907,44.156
			c1.14-0.979,1.71-2.549,1.71-4.714c0-2.163-0.585-3.647-1.754-4.452c-1.174-0.805-3.266-1.208-6.273-1.208h-7.125v11.842h6.983
			C261.611,45.625,263.769,45.136,264.907,44.156z"/>
		<path fill="#010101" d="M332.259,28.716v5.257h-17.715v8.764h15.91v4.973h-15.91v8.856h18.285v5.26h-23.892v-33.11H332.259z"/>
		<path fill="#010101" d="M393.396,28.716H399v33.108h-6.081l-18.81-24.159v24.159h-5.604V28.716h5.604l19.282,24.724V28.716
			H393.396z"/>
	</g>
</g>
</svg>
